<svg xmlns="http://www.w3.org/2000/svg" data-name="Layer 1" viewBox="0 0 64 64"><path d="M47.39 24.5c.05.05.48-.13.6-.14.4-.01 1.25.92 1.29 1.36.08.88-.05 1.9-.02 2.79l-1.91 5.65c-.06.11-1.03.87-1.13.9-.35.1-.77-.12-1.14-.05l-.73 4.62c-.54 1.14-1.84 2.19-1.93 3.46-.16 2.31.13 4.81 0 7.15l.09.47 4.11 3.18c-3.03 3.99-7.43 6.79-12.15 8.43-.54.19-1.75.64-2.26.68-.3.02-1.24-.3-1.59-.4-5.06-1.56-9.74-4.52-12.99-8.72l4.19-3.16.02-8.04c-.43-1.09-1.37-2-1.92-3.05l-.75-4.61c-.38-.05-.74.15-1.12.03-.07-.02-1.08-.78-1.12-.84l-1.95-5.75c.11-.7-.2-2.46.05-3.02.11-.27.95-1.07 1.23-1.06.16 0 .61.27.61.03L14.7 12.37l2.41-2.84.07-2.24 3.05-3.53 6.92-2.74h11.06l9.51 6.11 1.55 6.08-1.89 11.3Zm-2.81-11.05-6.46-3.13-5.95 1.15-5.25-1.32-6.81 2.38c.06.78.06 1.57.05 2.35s.03 2.19-.08 2.86c-.08.5-.89 1.85-1.13 2.44-.07.18-.18.38-.2.57l-.04 8.11 1.67 10.5 1.88 2.67 4.67 2.69c3.48.09 6.97.14 10.45.05 1.32-.98 3.24-1.66 4.51-2.63.28-.21 1.89-2.44 1.99-2.77l1.77-10.91c-.2-2.49.27-5.4 0-7.84-.09-.84-.86-2.07-1.05-2.95zM18.19 27.93c-.17-.52-.06-1.45-.29-1.92-.2-.42-1.14-1.17-1.63-1.1-.19.03-.76.59-.81.81-.13.73.09 1.82 0 2.59.7 1.63 1.04 3.84 1.83 5.38.14.28.78.88 1.07.89.1 0 .66-.12.67-.19l-.3-2.01-.62-.43c-.13-.29-.93-.96-.98-1.19-.13-.68.68-1.88.54-2.43-.02-.09-.65-.89-.76-1-.07-.07-.09-.13-.21-.11-.2.62-.26 1.27-.37 1.91-.01.07-.02.28-.12.26-.07-.57-.3-1.1-.4-1.67-.05-.29-.21-1.43-.12-1.62.07-.16.47-.45.66-.32l1.82 2.14Zm27.04 6.5c.72.34 1.17-.03 1.66-.53.53-1.77 1.43-3.63 1.88-5.4.16-.63.05-1.05.03-1.66-.01-.37.07-.76-.03-1.18-.05-.19-.57-.69-.74-.74-.46-.13-1.52.7-1.68 1.09-.18.45-.11 1.39-.23 1.91.33-.25 1.57-2.1 1.8-2.16.21-.06.58.21.64.39.09.3-.15 1.67-.23 2.05-.08.4-.28.77-.32 1.19-.1 0-.11-.25-.12-.34-.09-.61-.1-1.27-.41-1.83l-.91 1.12c-.03.75.72 1.82.51 2.54-.02.08-1.01 1.14-1.1 1.21-.15.11-.29.12-.43.22l-.34 2.12Zm-3.44 19.3V43.54l-7.66 6.66c-1.64.12-3.35.09-4.99.01-2-1.76-3.93-3.59-5.9-5.38-.16-.14-.4-.37-.56-.49-.07-.05-.09-.14-.21-.1l-.07 5.78-.22 2.66c-.5.89-1.16 1.68-1.81 2.45 2.63 2.34 5.62 4.49 8.8 6.05.49.24 2.59 1.21 3 1.2s1.58-.48 2.02-.65c.27-.11 1.51-.61 1.63-.75.05-.05.1-.1.1-.18l.21-2.66 5.68-4.41Z"/><path d="m29.25 19.74-.03-.7 1.43 1.03-.47 1.16 1.01 1.97c-.17 1.53-.04 3.17-.18 4.69-.07.74-.47 1.42-.63 2.14l-.21-.17c.03-.65.36-1.35.42-1.96.09-.96.04-2.11.07-3.08.02-.62.25-1.28-.14-1.85l-.54 1.31-.15.16c-.02-.09-.04-.22-.09-.3-.34-.57-2.45-1.59-3.01-2.17-1.03-.04-2.18-.04-3.11.49-.22.13-1.56 1.32-1.7 1.2 1.02-1.71 2.68-2.08 4.55-2.17l-2.91-.64c-.45-.01-3.05 1.59-3.19 1.48.22-.47.23-1.29.49-1.72.07-.12 2.02-1.66 2.15-1.7h5.16l1.09.83ZM44.31 22.33l-3.05-1.47-3.04.56c.04.1.35.11.46.13.74.11 1.56.1 2.24.42.74.34 1.34 1.07 1.84 1.69-.15.13-1.45-1.05-1.66-1.18-.44-.28-1.02-.44-1.54-.49-.3-.03-1.12-.1-1.39-.08-.32.02-2 1.31-2.41 1.59s-.97.38-1.02.94l-.86-1.59.62-1.53-.57-1.26 1.51-1.02v.7c.27-.2.75-.79 1.05-.84h5.1l2.21 1.71.49 1.72Z"/><path d="M29.18 24.36h-1.23s-.12.18-.1-.03l.35-.46-1.19-.49c.03.47-.33 1.22-.82 1.31-.2.04-1.19.05-1.35-.02-.25-.11-.59-.8-.63-1.08l-.91.6.63.59c-.71-.15-1.36-.27-2.1-.21.39-.34.79-.7 1.22-.98 1.18-.77 1.94-.95 3.36-.91.46.01 1.72.73 2.16 1 .26.16.68.34.61.69ZM42.84 24.57c-.76-.06-1.44.05-2.17.21l.7-.59-.98-.6c-.02.49-.36 1.08-.87 1.12-1.11.1-1.82-.08-1.86-1.33l-1.19.49c-.05.27.25.35.35.56l-1.33-.07c-.02-.16 0-.23.1-.35.2-.22 2.11-1.24 2.41-1.3.22-.04 1.95.03 2.16.09.31.09.98.5 1.27.69.5.31.96.69 1.41 1.08M34.79 38.08l-1.24 1.32c-.76-.03-1.63.09-2.37.02-.12-.01-.23 0-.32-.1l-1.05-1.27c1.61.41 3.34.28 4.97.04ZM25.54 35.81c.02-.06.69-.96.75-1.01.52-.4 1.89-.72 2.55-1.09.4-.22.68-.59 1.04-.84l-1.53-1.13.14-1.59.97-1.03c-.02.42-.56.96-.63 1.3-.04.19-.03 1 .07 1.12.04.05.45.29.49.25 0-.14-.05-.36.12-.41.78-.06 1.01-.09 1.53.48.14.16.56.83.66.88.12.06.86.06 1.02.04.53-.07 1.06-1.31 1.68-1.4.2-.03.94.09.77.35-.6.45-1.63.35-1.72 1.26.42.01.98-.19 1.38-.02.25.11.61.56.88.73.65.41 2.06.69 2.59 1.1.05.04.75 1.02.75 1.09v1.58c-.44-.01-1.16-.75-1.51-.78-.32-.02-.84.29-1.26.29-.69 0-1.59-.34-2.31-.36s-1.4.19-2.18.15c-.37-.02-.76-.15-1.12-.15-.77 0-1.68.36-2.45.36-.39 0-.97-.29-1.25-.27-.31.03-1.06.71-1.45.75v-1.65Zm11.14.45-3.13-1.25c-.38-.11-.89.33-1.23.31-.27-.01-.77-.3-1.06-.37l-3.33 1.34c0 .37 2.78-.71 2.98-.8.47.03 1.03.51 1.47.49.37-.02 1-.51 1.31-.48.55.05 1.66.71 2.28.81.16.03.32.02.47.02.08 0 .26.05.24-.07"/><path d="M35 32.48c.24-.34.79-.73.84-1.15.11-.95-.23-1.14-.55-1.9-.03-.06-.15-.18-.05-.23.15.25.74.71.84.91.2.42.02 1.05.18 1.5-.01.17-.99.96-1.26.88Z"/></svg>